<svg aria-hidden="true" style="position: absolute; width: 0; height: 0; overflow: hidden;" version="1.1" xmlns="http://www.w3.org/2000/svg" xmlns:xlink="http://www.w3.org/1999/xlink">
<defs>
<symbol id="app-clock" viewBox="0 0 32 32">
<path d="M18.286 2.286c-7.573 0-13.714 6.141-13.714 13.714h-4.571l5.928 5.928 0.107 0.213 6.156-6.141h-4.571c0-5.897 4.77-10.667 10.667-10.667s10.667 4.77 10.667 10.667c0 5.897-4.77 10.667-10.667 10.667-2.941 0-5.608-1.204-7.528-3.139l-2.164 2.164c2.484 2.484 5.897 4.023 9.691 4.023 7.573 0 13.714-6.141 13.714-13.714s-6.141-13.714-13.714-13.714zM16.762 9.905v7.619l6.476 3.84 1.173-1.95-5.364-3.185v-6.324h-2.286z"></path>
</symbol>
<symbol id="app-link" viewBox="0 0 32 32">
<path d="M15.173 2.602l-5.028 5.028 2.514 2.514 5.028-5.028c2.074-2.074 5.468-2.074 7.542 0s2.074 5.468 0 7.543l-5.028 5.028 2.514 2.514 5.028-5.028c3.47-3.47 3.47-9.101 0-12.571s-9.101-3.47-12.571 0zM17.687 20.201l-5.028 5.028c-2.074 2.074-5.468 2.074-7.542 0s-2.074-5.468 0-7.542l5.028-5.028-2.514-2.514-5.028 5.028c-3.47 3.47-3.47 9.101 0 12.571s9.101 3.47 12.571 0l5.028-5.028-2.514-2.514zM8.888 18.944l10.057-10.057 2.514 2.514-10.057 10.057-2.514-2.514z"></path>
</symbol>
<symbol id="app-notification" viewBox="0 0 32 32">
<path d="M16 31.2c1.76 0 3.2-1.44 3.2-3.2h-6.4c0 1.76 1.44 3.2 3.2 3.2zM25.6 21.6v-8c0-4.912-2.608-9.024-7.2-10.112v-1.088c0-1.328-1.072-2.4-2.4-2.4s-2.4 1.072-2.4 2.4v1.088c-4.576 1.088-7.2 5.184-7.2 10.112v8l-3.2 3.2v1.6h25.6v-1.6l-3.2-3.2zM22.4 23.2h-12.8v-9.6c0-3.968 2.416-7.2 6.4-7.2s6.4 3.232 6.4 7.2v9.6z"></path>
</symbol>
<symbol id="app-plus" viewBox="0 0 32 32">
<path d="M16 32c-8.837 0-16-7.163-16-16s7.163-16 16-16c8.837 0 16 7.163 16 16s-7.163 16-16 16zM17.333 17.333h8v-2.667h-8v-8h-2.667v8h-8v2.667h8v8h2.667v-8z"></path>
</symbol>
<symbol id="app-search" viewBox="0 0 32 32">
<path d="M22.222 19.556h-1.404l-0.498-0.48c1.742-2.027 2.791-4.658 2.791-7.52 0-6.382-5.173-11.556-11.556-11.556s-11.556 5.173-11.556 11.556c0 6.382 5.173 11.556 11.556 11.556 2.862 0 5.493-1.049 7.52-2.791l0.48 0.498v1.404l8.889 8.871 2.649-2.649-8.871-8.889zM11.556 19.556c-4.427 0-8-3.573-8-8s3.573-8 8-8c4.427 0 8 3.573 8 8s-3.573 8-8 8z"></path>
</symbol>
<symbol id="app-star" viewBox="0 0 32 32">
<path d="M32 12.384l-11.504-0.992-4.496-10.592-4.496 10.608-11.504 0.976 8.736 7.568-2.624 11.248 9.888-5.968 9.888 5.968-2.608-11.248 8.72-7.568zM16 22.24l-6.016 3.632 1.6-6.848-5.312-4.608 7.008-0.608 2.72-6.448 2.736 6.464 7.008 0.608-5.312 4.608 1.6 6.848-6.032-3.648z"></path>
</symbol>
<symbol id="app-tag" viewBox="0 0 32 32">
<path d="M6 32l1-8h-7v-4h7.5l1-8h-8.5v-4h9l1-8h4l-1 8h8l1-8h4l-1 8h7v4h-7.5l-1 8h8.5v4h-9l-1 8h-4l1-8h-8l-1 8h-4zM19.5 20l1-8h-8l-1 8h8z"></path>
</symbol>
<symbol id="app-user" viewBox="0 0 32 32">
<path d="M11.2 18.8c-3.744 0-11.2 1.872-11.2 5.6v2.8h22.4v-2.8c0-3.728-7.456-5.6-11.2-5.6zM3.744 24c1.344-0.928 4.592-2 7.456-2s6.112 1.072 7.456 2h-14.912zM11.2 16c3.088 0 5.6-2.512 5.6-5.6s-2.512-5.6-5.6-5.6c-3.088 0-5.6 2.512-5.6 5.6s2.512 5.6 5.6 5.6zM11.2 8c1.328 0 2.4 1.072 2.4 2.4s-1.072 2.4-2.4 2.4c-1.328 0-2.4-1.072-2.4-2.4s1.072-2.4 2.4-2.4zM22.464 18.896c1.856 1.344 3.136 3.136 3.136 5.504v2.8h6.4v-2.8c0-3.232-5.6-5.072-9.536-5.504zM20.8 16c3.088 0 5.6-2.512 5.6-5.6s-2.512-5.6-5.6-5.6c-0.864 0-1.664 0.208-2.4 0.56 1.008 1.424 1.6 3.168 1.6 5.040s-0.592 3.616-1.6 5.040c0.736 0.352 1.536 0.56 2.4 0.56z"></path>
</symbol>
  <symbol id="app-arrow-left" viewBox="0 0 32 32">
    <path d="M32 14h-24.34l11.18-11.18-2.84-2.82-16 16 16 16 2.82-2.82-11.16-11.18h24.34v-4z"></path>
  </symbol>
  <symbol id="app-menu" viewBox="0 0 48 32">
    <path d="M0 5.333v-5.333h48v5.333h-48zM0 18.667h48v-5.333h-48v5.333zM0 32h48v-5.333h-48v5.333z"></path>
  </symbol>
</defs>
</svg>
